<?xml version="1.0" standalone="no"?>
<!DOCTYPE svg PUBLIC "-//W3C//DTD SVG 20010904//EN"
 "http://www.w3.org/TR/2001/REC-SVG-20010904/DTD/svg10.dtd">
<svg version="1.0" xmlns="http://www.w3.org/2000/svg"
 width="2900.000000pt" height="1472.000000pt" viewBox="0 0 2900.000000 1472.000000"
 preserveAspectRatio="xMidYMid meet">
<metadata>
Created by potrace 1.16, written by Peter Selinger 2001-2019
</metadata>
<g transform="translate(0.000000,1472.000000) scale(0.100000,-0.100000)"
fill="#212B37" stroke="none">
<path d="M11025 13173 c-447 -31 -943 -235 -1300 -536 -258 -216 -446 -460
-596 -772 -106 -220 -165 -416 -206 -675 -17 -109 -18 -304 -18 -3850 0 -3593
1 -3740 19 -3855 61 -394 209 -740 459 -1070 88 -115 295 -317 422 -412 339
-253 734 -409 1147 -453 65 -7 1263 -10 3615 -10 3869 0 3631 -4 3891 61 438
108 784 301 1092 609 193 193 325 378 445 625 110 225 175 451 212 737 16 123
17 396 18 3783 0 2961 -2 3672 -13 3765 -49 422 -212 827 -469 1162 -87 113
-261 293 -368 380 -250 202 -560 357 -886 443 -290 76 67 69 -3879 70 -1944 1
-3557 0 -3585 -2z m998 -2327 c49 -21 79 -59 161 -206 65 -117 572 -1003 594
-1038 6 -10 40 0 143 41 361 145 723 235 1159 289 169 21 817 17 1000 -5 402
-50 769 -143 1123 -284 76 -31 139 -54 141 -52 5 6 161 279 214 374 24 44 105
186 180 315 74 129 168 294 209 365 110 192 147 222 258 213 96 -8 164 -86
165 -189 0 -34 -9 -64 -33 -110 -26 -49 -459 -807 -627 -1096 -14 -23 -22 -43
-20 -46 3 -2 55 -32 115 -67 459 -264 911 -660 1217 -1066 170 -227 271 -389
405 -653 156 -308 268 -651 347 -1056 21 -107 66 -413 66 -446 0 -5 -648 -9
-1523 -9 -1676 0 -1576 4 -1699 -62 -32 -17 -79 -53 -104 -80 -25 -27 -47 -48
-49 -46 -1 2 -16 80 -34 173 -17 94 -56 294 -86 445 -30 151 -90 462 -135 690
-44 228 -87 444 -96 479 -23 99 -62 169 -134 242 -160 163 -396 199 -601 93
-55 -28 -158 -134 -194 -199 -34 -61 -80 -215 -225 -755 -39 -146 -79 -294
-90 -330 -10 -36 -44 -159 -75 -275 -31 -115 -58 -217 -61 -225 -4 -9 -34 41
-76 124 -57 115 -81 151 -132 201 -158 157 -380 197 -574 103 -71 -34 -162
-108 -206 -168 -23 -31 -84 -136 -136 -233 l-95 -177 -1112 0 c-1099 0 -1113
0 -1113 20 0 50 42 341 70 480 139 701 446 1329 914 1870 284 328 634 617
1031 851 72 42 129 82 128 88 -3 10 -259 462 -542 956 l-126 220 0 72 c0 64 3
75 31 110 17 21 46 46 65 55 41 21 117 23 162 4z m2706 -3090 c54 -38 67 -68
100 -237 17 -85 80 -408 141 -719 61 -311 122 -623 135 -695 59 -314 254
-1317 261 -1335 5 -13 6 -13 14 0 4 8 76 220 159 471 143 429 154 458 189 491
20 20 48 42 62 49 20 11 287 13 1475 10 1590 -3 1474 2 1533 -65 79 -90 57
-224 -46 -288 l-37 -23 -1359 -5 -1359 -5 -194 -570 c-107 -313 -202 -595
-212 -625 -49 -145 -95 -258 -117 -288 -83 -108 -262 -91 -323 31 -21 42 -103
443 -291 1427 -201 1051 -260 1350 -269 1350 -4 0 -36 -109 -73 -242 -116
-426 -304 -1113 -388 -1423 -85 -315 -114 -392 -158 -423 -69 -48 -136 -53
-209 -16 -67 33 -88 67 -212 335 -55 118 -152 327 -216 464 -64 138 -131 280
-148 318 -17 37 -33 67 -37 67 -3 0 -41 -62 -85 -137 -112 -195 -128 -218
-178 -242 l-44 -21 -1220 2 -1220 3 -41 29 c-118 81 -107 262 18 326 39 20 60
20 1179 22 l1140 2 33 61 c19 33 85 152 148 265 117 213 151 259 206 285 74
35 177 8 229 -59 14 -18 70 -130 124 -247 188 -408 350 -751 361 -762 4 -5 22
45 40 110 17 65 49 179 70 253 21 74 55 198 75 275 21 77 52 194 71 261 18 66
63 230 99 365 145 538 248 909 278 1003 46 146 99 191 211 181 30 -3 63 -14
85 -29z"/>
<path d="M12680 8106 c-98 -27 -193 -93 -250 -174 -132 -184 -99 -465 72 -605
234 -192 577 -117 702 153 59 128 55 269 -10 400 -90 178 -320 280 -514 226z"/>
<path d="M16227 8110 c-75 -19 -150 -63 -213 -125 -73 -72 -108 -139 -126
-246 -29 -169 52 -351 200 -449 120 -79 296 -93 425 -32 95 44 178 126 225
221 36 73 37 77 37 190 0 109 -2 120 -31 181 -57 119 -144 200 -261 242 -65
24 -196 33 -256 18z"/>
</g>
</svg>
